<?xml version="1.0" encoding="UTF-8" standalone="no"?>
<svg
   xmlns:dc="http://purl.org/dc/elements/1.1/"
   xmlns:cc="http://creativecommons.org/ns#"
   xmlns:rdf="http://www.w3.org/1999/02/22-rdf-syntax-ns#"
   xmlns:svg="http://www.w3.org/2000/svg"
   xmlns="http://www.w3.org/2000/svg"
   height="300"
   width="300"
   xml:space="preserve"
   viewBox="0 0 300 300"
   y="0px"
   x="0px"
   id="Calque_1"
   version="1.1"><metadata
     id="metadata273"><rdf:RDF><cc:Work
         rdf:about=""><dc:format>image/svg+xml</dc:format><dc:type
           rdf:resource="http://purl.org/dc/dcmitype/StillImage" /><dc:title></dc:title></cc:Work></rdf:RDF></metadata><defs
     id="defs271" /><style
     id="style2"
     type="text/css">
	.st0{fill:#990013;}
	.st1{fill:#E70020;}
	.st2{fill:#B5B5B5;}
	.st3{fill:#F1F1F1;}
	.st4{fill:#E1E1E4;}
	.st5{fill:#AD0018;}
	.st6{fill:#98A7AE;}
	.st7{fill:#7B888E;}
	.st8{fill:#1D1D1B;}
</style><path
     id="path108"
     d="M 152.55078 28.449219 C 135.65078 29.449219 111.39531 33.082031 96.695312 40.582031 L 121.51562 76.869141 L 156.38477 69.634766 L 152.55078 28.449219 z M 46.347656 90.28125 L 31.263672 149.08594 L 78.96875 149.75391 L 88.970703 107.89648 L 46.347656 90.28125 z M 89.849609 193.46484 L 51.263672 214.73242 L 94.5 258.05273 L 116.33594 215.04688 L 89.849609 193.46484 z "
     style="fill:#f1f1f1" /><g
     transform="translate(-97.35,-40.75)"
     id="g100"><path
       style="fill:#b5b5b5"
       id="path98"
       d="m 148.3,136.4 -19.8,0.7 c -7.3,14.6 -11.5,30.7 -12.4,47.3 l 19.9,-0.8 c 0.8,-16.6 5,-32.6 12.3,-47.2 z"
       class="st2" /></g><path
     style="fill:#b5b5b5"
     id="path102"
     d="m 144.85,29.15 c -0.4,0 -0.9,0 -1.3,-0.1 -0.1,0 -0.2,0 -0.2,0 -0.6,0 -1.1,0 -1.7,0 -0.6,0 -1.2,0 -1.8,0 -2.4,0 -4.8,0.1 -7.1,0.2 -16.9,1 -33.1,5.4 -47.8,12.9 l 19.9,-0.8 c 12.4,-6.4 25.9,-10.5 40,-12.2 z"
     class="st2" /><path
     style="fill:#b5b5b5"
     id="path104"
     d="m 93.25,251.25 c -6.9,-4.5 -13.4,-9.8 -19.4,-15.8 -5.8,-5.8 -10.9,-12 -15.3,-18.6 l -19.9,0.7 c 4.4,6.7 9.6,12.9 15.4,18.7 6,6 12.5,11.2 19.4,15.8 z"
     class="st2" /><path
     id="path166"
     d="M 226.34961 48.150391 L 201.34766 80.701172 L 230.41797 107.08594 L 261.05078 82.75 C 252.31849 69.283755 240.84148 58.946531 228.84961 49.849609 C 228.04961 49.249609 227.14961 48.650391 226.34961 48.150391 z M 242.06445 146.0957 L 231.86523 190.35156 L 268.25 203.84961 C 276.46538 188.80555 279.17592 172.81694 280.94922 156.44922 L 242.06445 146.0957 z M 199.01758 221.66406 L 163.21484 232.63281 L 167.15039 270.75 C 183.351 269.43984 199.79172 265.85585 214.15039 258.05078 L 199.01758 221.66406 z "
     style="fill:#e1e1e4" /><path
     style="fill:#e70020"
     id="path224"
     d="m 170.77195,77.115938 -11.12195,-48.865938 c -2.4,0 -4.8,0.1 -7.1,0.2 v 36.2 c -10.5,0.9 -20.5,3.7 -29.6,8 l -18.3,-31.3 -23.747458,6.261017 -38.915254,41.355932 8.962712,6.583051 31.5,18 c -4.2,9 -6.9,18.8 -7.7,29.2 l -36.2,0.1 -11.089831,18.74237 17.450848,48.96271 13.538983,6.19492 31.3,-18.2 c 5.8,8.3 13.1,15.5 21.4,21.3 l -18,31.5 c 4.269347,5.39088 14.94121,10.52582 14.94121,10.52582 12.3,5.7 26.55879,7.47418 40.35879,8.67418 1.4,0.1 2.9,0.2 4.4,0.3 2.3,0.1 4.5,0.2 6.8,0.2 l 6.13625,-46.46484 z"
     class="st1" /><path
     id="path194"
     d="m 159.75,28.25 v 50.599609 142.000001 50.09961 h -0.0996 c -2.3,0 -4.60078,-0.0992 -6.80078,-0.19922 -1.5,-0.1 -2.90039,-0.20078 -4.40039,-0.30078 -21.30508,-2.77676 -38.46859,-8.27268 -55.19922,-19.09961 l -20,0.70117 c 4,2.6 8.100781,4.99961 12.300781,7.09961 1.2,0.6 2.39961,1.19922 3.59961,1.69922 12.299999,5.7 25.600389,9.20039 39.400389,10.40039 1.4,0.1 2.89844,0.20078 4.39844,0.30078 8.73858,0.57983 18.33692,-0.19098 26.80076,-0.40037 2.57622,0.0277 5.1271,-0.0467 7.40037,-0.20116 l -0.0996,-36.19922 c 10.4,-0.9 20.19922,-3.60039 29.19922,-7.90039 l 18.19922,31.40039 c 23.39092,-11.82317 41.86883,-31.0306 53.80077,-54.40036 l -31.40039,-18.09961 c 4.2,-9 7.00078,-18.79922 7.80078,-29.19922 h 36.19922 c 2.40755,-26.21221 -5.07451,-52.1851 -19.5,-73.900389 l -31.40039,18.199219 c -5.8,-8.300001 -13.09844,-15.498829 -21.39844,-21.298829 l 18.09961,-31.40039 c -19.25318,-12.841739 -41.99707,-19.900392 -65.09961,-19.900392 z m -55.09961,13.199219 -19.90039,0.800781 -1.199219,0.599609 c -21.788736,11.032392 -42.187827,33.868365 -52.5,53.59961 l 19.898438,-0.798828 c 2.1,-4.2 4.501562,-8.400782 7.101562,-12.300782 11.076385,-16.498691 25.071015,-29.947951 41.699219,-39.298828 1.2,-0.7 2.49922,-1.4 3.69922,-2 z m -65.999999,101.300781 -19.900391,0.80078 c -1.689328,25.19186 8.186501,56.0717 19.900391,73.89844 l 19.90039,-0.69922 c -14.682604,-22.19226 -21.012003,-48.35201 -19.90039,-73.90039 z"
     style="fill:#ad0018" /><rect
     y="108.27119"
     x="113.35594"
     height="86.237297"
     width="82.440674"
     id="rect1451"
     style="opacity:1;fill:#1d1d1b;fill-opacity:1;stroke:none;stroke-width:10;stroke-linecap:square;stroke-linejoin:miter;stroke-miterlimit:4;stroke-dasharray:none;stroke-dashoffset:0;stroke-opacity:1" /><g
     transform="translate(-97.35,-40.75)"
     id="g244"><path
       style="fill:#98a7ae"
       id="path238"
       d="m 283.2,217.5 c -1.8,0.6 -3.6,0.9 -5.3,1 1.7,-0.1 3.5,-0.4 5.3,-1 z"
       class="st6" /><path
       style="fill:#98a7ae"
       id="path240"
       d="m 277.6,218.5 c -0.5,0 -1,0.1 -1.5,0.1 0.5,0 1,-0.1 1.5,-0.1 z"
       class="st6" /><path
       style="fill:#98a7ae"
       id="path242"
       d="m 297.3,179.8 c -3.7,-6.7 -9.3,-12 -14.8,-17.2 -1,-0.9 -1.9,-1.8 -2.8,-2.6 -3.4,-3.3 -6.8,-6.4 -10.2,-9.5 -3.3,-3 -6.7,-6.1 -10.1,-9.4 l -1.8,-1.8 -1.8,1.8 c -3.4,3.2 -6.8,6.3 -10.1,9.4 -1.9,1.7 -3.8,3.4 -5.7,5.2 1.1,-1 2.1,-2 3.2,-3 l 1.4,1.4 c 3.4,3.2 6.8,6.3 10.1,9.4 3.3,3 6.8,6.2 10.2,9.5 0.9,0.9 1.8,1.7 2.8,2.6 5.5,5.2 11.2,10.5 14.8,17.2 4.4,8 4.6,16.9 0.6,24.6 4.7,-1.5 9.8,-4.7 13.8,-11.2 5,-8 5.2,-17.7 0.4,-26.4 z"
       class="st6" /></g><path
     style="fill:#7b888e"
     id="path246"
     d="m 199.95,139.05 c -2.8,-5.1 -6.7,-9.4 -10.8,-13.4 2.2,5.8 3.6,10.8 0,15.9 -1.7,2.5 -4.9,4.1 -7.7,4.8 1.4,1.8 2.7,3.7 3.8,5.7 4.4,8.1 4.6,16.9 0.6,24.7 4.7,-1.5 9.8,-4.7 13.8,-11.2 4.9,-8.1 5.1,-17.8 0.3,-26.5 z"
     class="st7" /><path
     style="fill:#f1f1f1"
     id="path140"
     d="m 147.95,181.75 1.1,-0.8 c 0.7,-0.5 1.6,-2 2.2,-4.8 -3,1.1 -6.2,1.6 -9.4,1.6 -6.1,0 -14.7,-2.2 -20.9,-12.3 -5,-8.1 -5.1,-17.8 -0.4,-26.4 3.7,-6.7 9.3,-12 14.8,-17.2 1,-0.9 1.9,-1.8 2.8,-2.6 3.4,-3.3 6.8,-6.4 10.2,-9.5 3.3,-3 6.7,-6.1 10.1,-9.4 l 1.2,-1.2 c 4.49877,-4.523073 8.82774,-11.590026 0.10547,-20.596094 -39.2,0 -71.10547,31.796094 -71.10547,70.896094 0,39.2 31.9,71 71,71 10.23336,-20.09377 1.80512,-22.48605 -0.1,-31.2 l -11.62105,0 z"
     class="st3" /><path
     style="fill:#e1e1e4"
     id="path190"
     d="m 159.65,78.55 v 20.7 l 0.6,-0.6 1.8,1.8 c 3.4,3.2 6.8,6.3 10.1,9.4 3.3,3 6.8,6.2 10.2,9.5 0.9,0.9 1.8,1.7 2.8,2.6 5.5,5.2 11.2,10.5 14.8,17.2 4.7,8.7 4.6,18.3 -0.4,26.4 -6.2,10.1 -14.8,12.2 -20.9,12.3 -3.2,0 -6.4,-0.5 -9.4,-1.6 0.7,2.8 1.5,4.3 2.2,4.8 l 1.1,0.8 v 7.4 h -13 v 31.5 c 39.2,0 71,-31.9 71,-71 0.2,-39.3 -31.7,-71.2 -70.9,-71.2 z"
     class="st4" /></svg>